<svg id="ek92pswf8961" xmlns="http://www.w3.org/2000/svg" xmlns:xlink="http://www.w3.org/1999/xlink" viewBox="0 0 458 401" shape-rendering="geometricPrecision" text-rendering="geometricPrecision"><path id="ek92pswf8962" d="M101.800000,42.500000C133.400000,17.200000,173.400000,2,217,2C264.900000,2,308.500000,20.300000,341.200000,50.200000" transform="matrix(1 0 0 1 6.08497800000001 14.45182100000000)" fill="none" stroke="rgb(229,229,229)" stroke-width="2.500000"/><path id="ek92pswf8963" d="M153.900000,358.900000C83.400000,333.200000,33,265.500000,33,186C33,176.400000,33.700000,166.900000,35.200000,157.700000" transform="matrix(1 0 0 1 6.08497800000001 14.45182100000022)" fill="none" stroke="rgb(229,229,229)" stroke-width="2.500000"/><path id="ek92pswf8964" d="M398.400000,154.800000C400.100000,165,401,175.400000,401,186C401,268,347.300000,337.500000,273.200000,361.300000" transform="matrix(1 0 0 1 6.08497800000009 14.45182100000022)" fill="none" stroke="rgb(229,229,229)" stroke-width="2.500000" stroke-dashoffset="263.320000"/><path id="ek92pswf8965" d="M117.600000,61.400000C144.700000,39.900000,179.100000,27,216.500000,27C257.200000,27,294.400000,42.300000,322.600000,67.400000" transform="matrix(1 0 0 1 6.08497800000001 14.45182100000000)" fill="none" stroke="rgb(229,229,229)" stroke-width="2.500000"/><path id="ek92pswf8966" d="M160.700000,336C100.100000,313.400000,57,255,57,186.500000C57,177.300000,57.800000,168.400000,59.300000,159.600000" transform="matrix(1 0 0 1 6.08497800000001 14.45182100000011)" fill="none" stroke="rgb(229,229,229)" stroke-width="2.500000"/><path id="ek92pswf8967" d="M373.200000,156.600000C375,166.300000,376,176.300000,376,186.500000C376,257.500000,329.600000,317.700000,265.500000,338.300000" transform="matrix(1 0 0 1 6.08497800000009 14.45182100000011)" fill="none" stroke="rgb(229,229,229)" stroke-width="2.500000"/><path id="ek92pswf8968" d="M132.700000,79.600000C155.300000,61.700000,183.900000,51,215,51C249.100000,51,280.200000,63.800000,303.700000,84.900000" transform="matrix(1 0 0 1 6.08497800000001 14.45182100000000)" fill="none" stroke="rgb(229,229,229)" stroke-width="2.500000"/><path id="ek92pswf8969" d="M168.700000,308.700000C118.100000,289.900000,82,241.200000,82,184C82,176.400000,82.600000,169,83.900000,161.700000" transform="matrix(1 0 0 1 6.08497800000001 14.45182100000000)" fill="none" stroke="rgb(229,229,229)" stroke-width="2.500000"/><path id="ek92pswf89610" d="M345.700000,159.100000C347.200000,167.200000,348,175.500000,348,184C348,243.100000,309.400000,293.200000,256.100000,310.500000" transform="matrix(1 0 0 1 6.08497800000009 14.45182100000000)" fill="none" stroke="rgb(229,229,229)" stroke-width="2.500000"/><path id="ek92pswf89611" d="M146.800000,96.600000C165.300000,82.400000,188.400000,74,213.500000,74C241.300000,74,266.600000,84.300000,285.900000,101.300000" transform="matrix(1 0 0 1 6.08497800000001 14.45182100000000)" fill="none" stroke="rgb(229,229,229)" stroke-width="2.500000"/><path id="ek92pswf89612" d="M175.500000,286.200000C133.700000,270.800000,104,230.600000,104,183.500000C104,176.700000,104.600000,170,105.800000,163.500000" transform="matrix(1 0 0 1 6.08497800000001 14.45182100000000)" fill="none" stroke="rgb(229,229,229)" stroke-width="2.500000"/><path id="ek92pswf89613" d="M320.400000,159.700000C322.100000,167.400000,323,175.300000,323,183.500000C323,231.800000,291.700000,272.800000,248.300000,287.400000" transform="matrix(1 0 0 1 6.08497800000009 14.45182100000000)" fill="none" stroke="rgb(229,229,229)" stroke-width="2.500000"/><path id="ek92pswf89614" d="M160.700000,114.200000C175.400000,102.800000,193.900000,96,214,96C235,96,254.300000,103.500000,269.300000,115.900000" transform="matrix(1 0 0 1 6.08497800000001 14.45182100000000)" fill="none" stroke="rgb(229,229,229)" stroke-width="2.500000"/><path id="ek92pswf89615" d="M182.100000,264C149.800000,251.300000,127,219.800000,127,183C127,177,127.600000,171.100000,128.800000,165.500000" transform="matrix(1 0 0 1 6.08497800000001 14.45182100000000)" fill="none" stroke="rgb(229,229,229)" stroke-width="2.500000"/><path id="ek92pswf89616" d="M298.800000,163.400000C300.300000,169.700000,301,176.300000,301,183C301,221.600000,275.800000,254.300000,241,265.700000" transform="matrix(1 0 0 1 6.08497800000009 14.45182100000000)" fill="none" stroke="rgb(229,229,229)" stroke-width="2.500000"/><path id="ek92pswf89617" d="M212.200000,298.900000C203,298.900000,194.500000,304.100000,190.400000,312.400000C186.300000,320.700000,187.300000,330.600000,193,337.900000L193,338L193.200000,338.100000C200.200000,347,212.400000,349.900000,222.700000,345C232.900000,340.100000,238.400000,328.800000,235.900000,317.800000C233.300000,306.700000,223.500000,298.900000,212.200000,298.900000L212.200000,298.900000ZM190,322.200000C190.200000,317.800000,191.700000,313.600000,194.200000,310.100000C195.800000,312.100000,197.800000,313.800000,200,315.200000C199.400000,317.500000,199,319.800000,199,322.200000L190,322.200000ZM201.800000,316.100000C204.700000,317.500000,208,318.300000,211.200000,318.400000L211.200000,322.200000L200.900000,322.200000C201,320.100000,201.300000,318.100000,201.800000,316.100000ZM213.200000,318.300000C216.800000,318,220.200000,316.900000,223.300000,315C224,317.300000,224.400000,319.700000,224.400000,322.100000L213.200000,322.100000L213.200000,318.300000ZM213.200000,316.300000L213.200000,301C217.500000,304,220.700000,308.200000,222.600000,313.100000C219.800000,315,216.500000,316.100000,213.200000,316.300000L213.200000,316.300000ZM211.200000,316.400000C208.100000,316.400000,205.100000,315.600000,202.300000,314.200000C204,309.300000,207.100000,305,211.200000,301.800000L211.200000,316.400000ZM211.200000,324.100000L211.200000,328.100000C208,328.100000,204.900000,328.900000,202,330.200000C201.400000,328.200000,201.100000,326.100000,201,324L211.200000,324ZM211.200000,330.100000L211.200000,343.800000C207.300000,340.800000,204.300000,336.800000,202.600000,332.200000C205.300000,330.900000,208.200000,330.200000,211.200000,330.100000L211.200000,330.100000ZM213.200000,330.200000C216.400000,330.500000,219.600000,331.500000,222.300000,333.200000C220.400000,337.700000,217.200000,341.600000,213.200000,344.500000L213.200000,330.200000ZM213.200000,328.200000L213.200000,324.100000L224.400000,324.100000C224.300000,326.600000,223.800000,329,223.100000,331.300000C220,329.600000,216.700000,328.500000,213.200000,328.200000L213.200000,328.200000ZM226.300000,324.100000L234.400000,324.100000C234.200000,328.900000,232.400000,333.500000,229.400000,337.200000C228.100000,335.400000,226.500000,333.800000,224.600000,332.500000C225.700000,329.800000,226.200000,327,226.300000,324.100000L226.300000,324.100000ZM226.300000,322.200000C226.200000,319.400000,225.800000,316.600000,224.900000,314C226.700000,312.700000,228.200000,311.100000,229.500000,309.300000C232.500000,313,234.200000,317.500000,234.400000,322.200000L226.300000,322.200000ZM228.200000,307.700000C227.100000,309.300000,225.700000,310.700000,224.200000,312C222.500000,307.900000,219.900000,304.300000,216.600000,301.400000C221.100000,302.200000,225.100000,304.500000,228.200000,307.700000L228.200000,307.700000ZM208.900000,301.100000C205.100000,304.300000,202.300000,308.500000,200.600000,313.200000C198.600000,311.900000,196.900000,310.300000,195.400000,308.500000C198.900000,304.500000,203.700000,301.900000,208.900000,301.100000L208.900000,301.100000ZM190,324.100000L199,324.100000C199.100000,326.500000,199.500000,328.900000,200.200000,331.200000C197.900000,332.500000,195.900000,334.300000,194.200000,336.300000C191.600000,332.800000,190.100000,328.500000,190,324.100000L190,324.100000ZM195.500000,337.900000C197,336,198.800000,334.400000,200.900000,333.200000C202.800000,338,205.900000,342.200000,210,345.400000C204.400000,344.800000,199.200000,342.100000,195.500000,337.900000ZM215.500000,345.200000C219.100000,342.300000,222,338.600000,223.900000,334.400000C225.500000,335.600000,226.900000,337.100000,228.100000,338.800000C224.700000,342.200000,220.300000,344.400000,215.500000,345.200000L215.500000,345.200000Z" transform="matrix(1 0 0 1 6.08497800000001 14.45182100000022)" fill="rgb(198,198,198)" stroke="none" stroke-width="1"/><path id="ek92pswf89618" d="M362.200000,115.100000C360.100000,115.100000,358.200000,116.600000,357.800000,118.600000L352.700000,118.600000L352.700000,107.800000L357.500000,107.800000C358,110.100000,360.100000,111.600000,362.400000,111.300000C364.700000,111,366.400000,109.100000,366.400000,106.800000C366.400000,104.500000,364.700000,102.500000,362.400000,102.300000C360.100000,102,358,103.600000,357.500000,105.800000L352.700000,105.800000L352.700000,101.700000L358.800000,95.600000L357.400000,94.200000L351.800000,99.800000L340.700000,99.800000L340.700000,92.500000C343,92,344.500000,89.900000,344.200000,87.600000C343.900000,85.300000,342,83.600000,339.700000,83.600000C337.400000,83.600000,335.400000,85.300000,335.200000,87.600000C334.900000,89.900000,336.500000,92,338.700000,92.500000L338.700000,99.800000L328.600000,99.800000L322.700000,93.900000L321.300000,95.300000L326.800000,100.800000L326.800000,105.900000L321.700000,105.900000C321.200000,103.600000,319.100000,102.100000,316.800000,102.400000C314.500000,102.700000,312.800000,104.600000,312.800000,106.900000C312.800000,109.200000,314.500000,111.200000,316.800000,111.400000C319.100000,111.600000,321.200000,110.100000,321.700000,107.900000L326.800000,107.900000L326.800000,118.700000L322,118.700000C321.500000,116.400000,319.400000,114.900000,317.100000,115.200000C314.800000,115.500000,313.100000,117.400000,313.100000,119.700000C313.100000,122,314.800000,124,317.100000,124.200000C319.400000,124.500000,321.500000,122.900000,322,120.700000L326.800000,120.700000L326.800000,124.300000L321,130.100000L322.400000,131.500000L328.100000,125.800000L338.800000,125.800000L338.800000,133.700000C336.500000,134.200000,335,136.300000,335.300000,138.600000C335.600000,140.900000,337.500000,142.600000,339.800000,142.600000C342.100000,142.600000,344.100000,140.900000,344.300000,138.600000C344.600000,136.300000,343,134.200000,340.800000,133.700000L340.800000,125.800000L351,125.800000L357,131.800000L358.400000,130.400000L352.600000,124.600000L352.600000,120.700000L357.700000,120.700000C358.200000,123,360.400000,124.500000,362.800000,124.200000C365.200000,123.900000,366.800000,121.800000,366.700000,119.400000C366.600000,117,364.600000,115.200000,362.200000,115.100000L362.200000,115.100000ZM361.900000,104.300000C362.900000,104.300000,363.900000,104.900000,364.300000,105.900000C364.700000,106.900000,364.500000,108,363.700000,108.700000C362.900000,109.400000,361.900000,109.700000,360.900000,109.300000C359.900000,108.900000,359.300000,108,359.300000,106.900000C359.300000,105.500000,360.500000,104.300000,361.900000,104.300000L361.900000,104.300000ZM317.200000,109.400000C316.200000,109.400000,315.200000,108.800000,314.800000,107.800000C314.400000,106.800000,314.600000,105.700000,315.400000,105C316.100000,104.300000,317.200000,104,318.200000,104.400000C319.200000,104.800000,319.800000,105.700000,319.800000,106.800000C319.800000,108.300000,318.600000,109.400000,317.200000,109.400000L317.200000,109.400000ZM317.500000,122.200000C316.100000,122.200000,314.900000,121.100000,314.900000,119.600000C314.900000,118.200000,316,117,317.500000,117C319,117,320.100000,118.100000,320.100000,119.600000C320.100000,120.300000,319.800000,120.900000,319.300000,121.400000C318.800000,121.900000,318.200000,122.200000,317.500000,122.200000L317.500000,122.200000ZM337.200000,88.100000C337.200000,87.100000,337.800000,86.100000,338.800000,85.700000C339.800000,85.300000,340.900000,85.500000,341.600000,86.300000C342.300000,87,342.600000,88.100000,342.200000,89.100000C341.800000,90.100000,340.900000,90.700000,339.800000,90.700000C338.300000,90.700000,337.200000,89.600000,337.200000,88.100000L337.200000,88.100000ZM342.300000,138.100000C342.300000,139.100000,341.700000,140.100000,340.700000,140.500000C339.700000,140.900000,338.600000,140.700000,337.900000,139.900000C337.200000,139.200000,336.900000,138.100000,337.300000,137.100000C337.700000,136.100000,338.600000,135.500000,339.700000,135.500000C341.100000,135.500000,342.300000,136.600000,342.300000,138.100000L342.300000,138.100000ZM350.700000,123.800000L328.700000,123.800000L328.700000,101.800000L350.700000,101.800000L350.700000,123.800000ZM362.200000,122.200000C361.200000,122.200000,360.200000,121.600000,359.800000,120.600000C359.400000,119.600000,359.600000,118.500000,360.400000,117.800000C361.100000,117.100000,362.200000,116.800000,363.200000,117.200000C364.200000,117.600000,364.800000,118.500000,364.800000,119.600000C364.800000,120.300000,364.500000,120.900000,364.100000,121.400000C363.700000,121.900000,362.900000,122.200000,362.200000,122.200000L362.200000,122.200000ZM347.100000,105.400000L332.300000,105.400000L332.300000,120.200000L347.100000,120.200000L347.100000,105.400000ZM345.200000,118.200000L334.300000,118.200000L334.300000,107.300000L345.200000,107.300000L345.200000,118.200000Z" transform="matrix(1 0 0 1 6.08497800000009 14.45182100000000)" fill="rgb(198,198,198)" stroke="none" stroke-width="1"/><path id="ek92pswf89619" d="M99.800000,92L70,92L70,135L113.400000,135L113.400000,105.600000L99.800000,92ZM111.500000,106.700000L100.300000,106.700000L100.300000,95.200000L111.500000,106.300000L111.500000,106.700000ZM98.500000,93.900000L98.500000,108.700000L111.600000,108.700000L111.600000,113.700000L71.900000,113.700000L71.900000,93.900000L98.500000,93.900000ZM81,115.500000L81,119.900000L71.900000,119.900000L71.900000,115.500000L81,115.500000ZM81,121.800000L81,126.200000L71.900000,126.200000L71.900000,121.800000L81,121.800000ZM82.900000,121.800000L111.500000,121.800000L111.500000,126.200000L83,126.200000L82.900000,121.800000ZM82.900000,119.900000L82.900000,115.500000L111.500000,115.500000L111.500000,119.900000L82.900000,119.900000ZM71.900000,128.100000L81.100000,128.100000L81.100000,133.100000L71.900000,133.100000L71.900000,128.100000ZM83,133.100000L83,128.100000L111.500000,128.100000L111.500000,133.100000L83,133.100000Z" transform="matrix(1 0 0 1 6.08497800000001 14.45182100000000)" fill="rgb(198,198,198)" stroke="none" stroke-width="1"/><path id="ek92pswf89620" d="M312.500000,274L294,230L293.400000,228.600000L293.300000,228.300000L292.800000,227.200000L292.800000,227.200000L211.600000,33.700000L209.700000,33.700000L128,228.300000L128,228.300000L127.200000,230.300000L108.100000,275.800000L108.400000,275.800000C136.100000,249.200000,173,234.400000,211.400000,234.400000C250.200000,234.400000,284.700000,249.200000,311.300000,273.600000L311.700000,274L312.500000,274ZM162.400000,214.200000L209,97.300000L259,213.800000C227.500000,205,194,205.100000,162.400000,214.200000L162.400000,214.200000Z" transform="matrix(1 0 0 1 6.08497800000001 14.45182100000000)" fill="rgb(204,165,12)" stroke="none" stroke-width="1"/></svg>